<?xml version="1.0" encoding="UTF-8"?>
<svg width="1200pt" height="1200pt" version="1.1" viewBox="0 0 1200 1200" xmlns="http://www.w3.org/2000/svg">
 <path d="m799.26 1043.7-180.62-251.66h-282.64c-99.254 0-180-80.746-180-180v-252c0-99.254 80.746-180 180-180h528c99.254 0 180 80.746 180 180v252c0 99.254-80.746 180-180 180h-21.238zm-463.26-791.66c-59.543 0-108 48.457-108 108v252c0 59.555 48.457 108 108 108h319.57l102 142.12 24.566-142.12h81.863c59.555 0 108-48.445 108-108v-252c0-59.543-48.445-108-108-108z"/>
</svg>
