<?xml version="1.0" encoding="utf-8"?>
<svg viewBox="0 0 471.701 471.701" fill="#000000" xmlns="http://www.w3.org/2000/svg">
  <g transform="matrix(1, 0, 0, 1, 3.552713678800501e-15, 0)">
    <path d="M433.601,67.001c-24.7-24.7-57.4-38.2-92.3-38.2s-67.7,13.6-92.4,38.3l-12.9,12.9l-13.1-13.1 c-24.7-24.7-57.6-38.4-92.5-38.4c-34.8,0-67.6,13.6-92.2,38.2c-24.7,24.7-38.3,57.5-38.2,92.4c0,34.9,13.7,67.6,38.4,92.3 l187.8,187.8c2.6,2.6,6.1,4,9.5,4c3.4,0,6.9-1.3,9.5-3.9l188.2-187.5c24.7-24.7,38.3-57.5,38.3-92.4 C471.801,124.501,458.301,91.701,433.601,67.001z M414.401,232.701l-178.7,178l-178.3-178.3c-19.6-19.6-30.4-45.6-30.4-73.3 s10.7-53.7,30.3-73.2c19.5-19.5,45.5-30.3,73.1-30.3c27.7,0,53.8,10.8,73.4,30.4l22.6,22.6c5.3,5.3,13.8,5.3,19.1,0l22.4-22.4 c19.6-19.6,45.7-30.4,73.3-30.4c27.6,0,53.6,10.8,73.2,30.3c19.6,19.6,30.3,45.6,30.3,73.3 C444.801,187.101,434.001,213.101,414.401,232.701z" style="fill: rgb(60, 130, 246);"/>
  </g>
  <rect x="57.387" y="81.533" width="350.79" height="179.129" style="fill-rule: nonzero; paint-order: fill; fill: rgb(60, 130, 246);" transform="matrix(1, 0, 0, 1, 3.552713678800501e-15, 0)"/>
  <path d="M 179.466 243.868 L 299.169 243.868 L 299.169 251.299 C 302.225 250.123 307.135 249.436 310.111 249.747 C 312.502 249.998 314.857 251.285 315.998 252.102 C 316.711 252.613 316.803 253.066 317.175 253.672 C 317.593 254.353 317.241 255.84 318.352 256.026 C 320.855 256.446 329.764 250.108 336.796 248.178 C 344.806 245.98 357.187 246.379 364.267 244.253 C 369.657 242.635 372.717 238.819 376.824 237.975 C 380.552 237.208 384.88 237.722 387.812 238.759 C 390.3 239.64 392.242 240.671 393.699 243.076 C 395.655 246.305 397.823 253.059 396.838 257.989 C 395.757 263.402 392.226 268.012 386.243 274.078 C 377.138 283.308 346.228 302.45 341.898 306.65 C 340.685 307.827 341.244 308.089 340.721 308.612 C 340.198 309.135 340.006 308.561 338.759 309.789 C 334.046 314.43 308.987 353.14 299.169 359.598 L 299.169 372.484 L 293.42 372.484 C 294.983 375.921 296.176 380.359 295.794 383.723 C 295.302 388.05 291.815 393.025 289.122 395.888 C 286.842 398.312 285.174 399.249 281.274 400.597 C 275.151 402.713 259.27 401.426 253.411 405.306 C 248.829 408.341 249.138 416.113 245.955 418.649 C 243.301 420.763 240.465 421.04 236.537 421.003 C 231.194 420.953 220.97 418.513 216.13 416.294 C 212.602 414.677 210.318 413.196 208.674 410.408 C 206.823 407.269 205.767 401.159 206.32 397.85 C 206.763 395.19 211.022 392.77 210.244 391.571 C 209.294 390.109 201.564 392.336 198.079 391.179 C 194.84 390.103 191.62 388.195 189.838 385.292 C 187.928 382.182 186.794 376.259 187.385 372.484 L 179.466 372.484 L 179.466 368.931 C 176.604 369.204 173.792 369.16 171.381 368.663 C 164.2 367.185 157.365 361.509 151.367 355.713 C 144.806 349.373 137.586 339.506 134.1 331.382 C 131.017 324.198 134.727 316.14 130.176 309.798 C 124.545 301.952 107.58 297.135 98.389 290.177 C 90.034 283.851 80.702 276.72 76.805 270.163 C 73.811 265.124 72.897 259.283 73.666 255.251 C 74.319 251.827 77.547 248.781 79.552 247.01 C 81.096 245.646 81.986 244.816 84.262 244.655 C 87.86 244.401 97.145 246.63 100.351 248.579 C 102.471 249.869 102.524 251.859 103.883 253.289 C 105.265 254.741 106.953 257.247 108.592 257.213 C 110.344 257.176 111.735 253.555 114.086 252.504 C 116.797 251.292 121.203 250.466 124.289 250.934 C 127.182 251.372 129.238 254.185 132.138 254.858 C 135.219 255.574 138.016 254.936 142.341 254.858 C 148.385 254.749 159.003 253.222 165.887 254.073 C 170.927 254.697 175.473 255.907 179.466 257.73 Z M 72.486 111.336 C 73.815 121.664 73.389 131.565 73.27 145.085 C 73.117 162.506 70.441 197.009 70.916 208.659 C 71.145 214.287 73.072 215.536 72.486 218.862 C 71.871 222.345 67.319 226.929 66.992 229.065 C 66.815 230.219 67.998 230.202 67.776 231.42 C 67.322 233.917 63.674 242.028 60.32 244.37 C 57.342 246.45 52.915 246.766 49.332 245.94 C 45.445 245.043 41.794 243.39 37.952 238.484 C 31.546 230.302 21.86 209.324 18.33 193.746 C 14.805 178.19 15.903 158.653 16.76 145.085 C 17.447 134.231 19.301 126.293 21.47 117.615 C 23.54 109.33 26.238 100.2 29.318 94.069 C 31.771 89.186 34.477 85.262 37.559 82.689 C 39.545 81.031 41.69 80.019 43.949 79.337 C 43.981 78.732 44.045 78.148 44.139 77.599 C 44.748 74.042 45.995 70.562 50.025 67.789 C 56.386 63.412 71.025 61.154 84.559 58.37 C 101.143 54.959 126.282 51.045 143.423 49.737 C 157.702 48.648 171.842 47.068 181.097 49.737 C 188.077 51.75 192.205 58.55 196.402 60.333 C 199.326 61.575 201.513 60.668 203.858 61.51 C 206.225 62.36 208.829 63.173 210.529 65.434 C 212.655 68.261 215.037 74.333 214.453 78.384 C 213.868 82.444 212.153 86.805 206.997 89.765 C 198.423 94.687 174.27 95.915 159.121 97.613 C 145.083 99.187 127.738 101.393 119.093 99.968 C 113.8 99.096 110.855 97.372 108.497 94.866 C 106.314 92.547 108.568 87.183 104.965 85.84 C 99.93 83.964 82.423 90.993 69.629 94.374 C 70.926 99.599 71.769 105.766 72.486 111.336 Z M 372.164 45.754 C 384.349 44.674 391.309 43.837 399.634 46.539 C 407.913 49.227 417.75 55.808 422.003 61.844 C 425.59 66.935 426.684 74.263 425.927 79.111 C 425.677 80.71 425.126 82.239 424.36 83.665 C 424.896 85.09 425.598 86.65 426.862 87.441 C 429.6 89.155 435.83 87.333 439.812 89.011 C 443.97 90.762 448.051 93.609 451.193 98.036 C 455.056 103.479 457.457 110.637 459.826 120.797 C 463.227 135.38 469.041 169.231 466.89 180.447 C 465.725 186.519 462.468 188.912 459.434 191.042 C 456.73 192.94 452.931 193.468 450.016 193.397 C 447.342 193.332 444.124 189.249 442.559 191.042 C 439.662 194.364 445.232 218.889 443.344 227.538 C 442.031 233.558 438.207 238.346 436.281 240.489 C 435.24 241.646 434.821 241.183 433.534 242.058 C 431.276 243.593 426.812 248.522 423.33 249.907 C 420.254 251.13 416.963 251.198 413.912 250.692 C 410.812 250.177 407.273 249.614 404.886 246.767 C 401.655 242.915 400.014 237.226 398.607 226.754 C 396.017 207.467 396.908 144.56 397.822 130.216 C 398.173 124.719 399.177 125.791 399.392 121.582 C 399.663 116.291 398.1 104.336 397.694 95.843 C 384.355 96.271 364.051 94.378 349.403 95.985 C 332.437 97.847 310.561 107.395 300.742 106.189 C 295.086 105.494 292.276 102.356 290.146 99.517 C 288.253 96.994 290.024 92.112 287.792 90.491 C 285.186 88.6 277.973 91.625 274.057 90.491 C 270.503 89.463 267.06 87.219 265.031 84.605 C 263.067 82.076 261.698 78.48 261.891 75.187 C 262.103 71.578 264.496 66.369 266.993 63.806 C 269.231 61.509 271.846 60.635 275.626 59.882 C 280.763 58.858 286.242 60.903 296.033 59.882 C 312.724 58.141 353.723 47.39 372.164 45.754 Z" style="fill: rgb(60, 130, 246);" transform="matrix(1, 0, 0, 1, 3.552713678800501e-15, 0)"/>
</svg>